<svg width="40" height="40" viewBox="0 0 40 40" fill="none" xmlns="http://www.w3.org/3000/svg">
    <rect width="40" height="40" rx="8" fill="#2563EB"/>
    <path d="M20 10C14.477 10 10 14.477 10 20C10 25.523 14.477 30 20 30C25.523 30 30 25.523 30 20C30 14.477 25.523 10 20 10ZM24.5 21.5H21.5V24.5C21.5 25.052 21.052 25.5 20.5 25.5H19.5C18.948 25.5 18.5 25.052 18.5 24.5V21.5H15.5C14.948 21.5 14.5 21.052 14.5 20.5V19.5C14.5 18.948 14.948 18.5 15.5 18.5H18.5V15.5C18.5 14.948 18.948 14.5 19.5 14.5H20.5C21.052 14.5 21.5 14.948 21.5 15.5V18.5H24.5C25.052 18.5 25.5 18.948 25.5 19.5V20.5C25.5 21.052 25.052 21.5 24.5 21.5Z" fill="white"/>
</svg>